<svg width="60" height="57" viewBox="0 0 60 57" fill="none" xmlns="http://www.w3.org/2000/svg">
<path d="M52.9385 31.2539C53.067 30.375 53.1313 29.4668 53.1313 28.5C53.1313 27.5625 53.067 26.625 52.9064 25.7461L59.4281 21.1172C60.0064 20.707 60.1671 19.916 59.8137 19.3301L53.6453 9.60352C53.2598 8.95898 52.4566 8.75391 51.7498 8.95898L44.0715 11.7715C42.4652 10.6582 40.7625 9.7207 38.867 9.01758L37.7104 1.57617C37.5819 0.873046 36.9394 0.375 36.1683 0.375H23.8317C23.0606 0.375 22.4502 0.873046 22.3217 1.57617L21.1651 9.01758C19.2697 9.7207 17.5348 10.6875 15.9606 11.7715L8.28229 8.95898C7.5755 8.72461 6.77233 8.95898 6.38681 9.60352L0.25059 19.3301C-0.134931 19.9453 -0.00642461 20.707 0.636111 21.1172L7.15785 25.7461C6.99722 26.625 6.86871 27.5918 6.86871 28.5C6.86871 29.4082 6.93296 30.375 7.0936 31.2539L0.571858 35.8828C-0.00642456 36.293 -0.167058 37.084 0.186337 37.6699L6.35468 47.3965C6.7402 48.041 7.54337 48.2461 8.25016 48.041L15.9285 45.2285C17.5348 46.3418 19.2375 47.2793 21.133 47.9824L22.2896 55.4238C22.4502 56.127 23.0606 56.625 23.8317 56.625H36.1683C36.9394 56.625 37.5819 56.127 37.6783 55.4238L38.8349 47.9824C40.7304 47.2793 42.4652 46.3418 44.0394 45.2285L51.7177 48.041C52.4245 48.2754 53.2277 48.041 53.6132 47.3965L59.7815 37.6699C60.1671 37.0254 60.0064 36.293 59.396 35.8828L52.9385 31.2539ZM30 39.0469C23.6389 39.0469 18.4344 34.3008 18.4344 28.5C18.4344 22.6992 23.6389 17.9531 30 17.9531C36.3611 17.9531 41.5656 22.6992 41.5656 28.5C41.5656 34.3008 36.3611 39.0469 30 39.0469Z" fill="white"/>
</svg>
